<svg xmlns="http://www.w3.org/2000/svg" viewBox="0 0 401.4 406.15"><defs><style>.cls-1{fill:#faf7fb;}.cls-2{fill:#512681;stroke:#faf7fb;stroke-linecap:round;stroke-linejoin:round;stroke-width:19px;}</style></defs><g id="Capa_2" data-name="Capa 2"><g id="Capa_1-2" data-name="Capa 1"><ellipse class="cls-1" cx="200.7" cy="203.08" rx="200.7" ry="203.08"/><path class="cls-2" d="M359.89,111.16v114.9a119.36,119.36,0,0,1-57.24,102l-.24.16-4,2.3-.17.09-.45.26c-.34.18-.67.37-1,.54s-.67.37-1,.55c-.57.3-1.15.61-1.72.88-51.73,26.4-87.09-3-92.58-30.47L200.7,295l79.6-46V157.11Q320.11,134.13,359.89,111.16Z"/><polygon class="cls-2" points="200.7 294.98 200.7 386.9 41.51 294.98 41.51 111.16 121.11 157.13 121.11 249.03 123.62 250.47 123.62 250.49 200.7 294.98"/><path class="cls-2" d="M280.3,157.13V249l-79.6,46v0l-77.08-44.5h0L121.11,249v-91.9q39.81-23,79.59-46h0q39.76,23,79.57,46Z"/><path class="cls-2" d="M359.89,111.16q-39.79,22.95-79.59,46v0h0q-39.78-23-79.57-46h0q-39.8,23-79.59,46l-79.6-46q79.61-46,159.19-91.91Q280.31,65.2,359.89,111.16Z"/></g></g></svg>