<svg xmlns="http://www.w3.org/2000/svg" viewBox="0 0 488.99 559.7"><defs><style>.cls-1{fill:#551988;stroke:#faf7fb;stroke-linecap:round;stroke-linejoin:round;stroke-width:32px;}</style></defs><g id="Capa_2" data-name="Capa 2"><g id="Capa_1-2" data-name="Capa 1"><path class="cls-1" d="M473,147.91V312.84a171.29,171.29,0,0,1-82.16,146.35,3.5,3.5,0,0,1-.35.23l-5.76,3.31-.25.14-.65.36-1.44.78c-.48.28-1,.53-1.45.78-.83.44-1.65.88-2.48,1.27-74.24,37.9-125-4.27-132.88-43.74l-1.07-10.53,114.25-66V213.87Q415.89,180.89,473,147.91Z"/><polygon class="cls-1" points="244.5 411.76 244.5 543.7 16 411.76 16 147.91 130.26 213.89 130.26 345.81 133.86 347.87 133.86 347.89 244.5 411.76"/><path class="cls-1" d="M358.75,213.89V345.81l-114.25,66v0L133.86,347.89v0l-3.6-2.06V213.89q57.13-33,114.24-65.95h0q57.09,33,114.21,65.95Z"/><path class="cls-1" d="M473,147.91q-57.14,33-114.24,66v0h0q-57.09-33-114.21-65.95h0q-57.13,33-114.24,65.95L16,147.91Q130.26,81.94,244.5,16,358.76,81.94,473,147.91Z"/></g></g></svg>